<?xml version="1.0" encoding="utf-8"?>
<!-- Generator: Adobe Illustrator 22.0.1, SVG Export Plug-In . SVG Version: 6.00 Build 0)  -->
<svg version="1.1" xmlns="http://www.w3.org/2000/svg" xmlns:xlink="http://www.w3.org/1999/xlink" x="0px" y="0px"
	 viewBox="0 0 412.5 213.5" style="enable-background:new 0 0 412.5 213.5;" xml:space="preserve">
<style type="text/css">
	.st0{fill:#A46E08;}
	.st1{fill:#E8B93B;}
	.st2{fill:#FFDF4F;}
</style>
<g id="Layer_2">
</g>
<g id="Layer_6">
</g>
<g id="Layer_7">
</g>
<g id="Layer_3">
</g>
<g id="Layer_1">
	<g>
		<path d="M258.5,39.3l-11.7,49.3c-3.4,14.6-5.7,24.8-7.7,37.1h-0.5c-2.1-12.3-4.8-22.9-8.3-37.1l-12-49.3h-12.9l-6.1,107.9H210
			l2-45.6c0.6-15.4,1.4-30.4,1.2-43.1h0.5c2.1,12.5,5.1,25.8,8.6,39.5l12,48.5h7.7l12.6-50.6c3.2-12.6,6-25.5,8.3-37.5h0.6
			c-0.5,12.2,0.3,28,1.1,42.3l2.2,46.4h11.1l-6-107.9H258.5z"/>
		<path d="M321.8,89v-0.5c10.1-4.2,16-12.8,16-23.9c0-7.7-2.3-14.1-6.8-18.4c-5.5-5.4-13.5-7.5-22.9-7.5c-6.6,0-12.3,0.8-17.2,2.1
			v105.8c3.2,0.6,7.8,1.1,15.4,1.1c11.8,0,21.5-2.9,27.3-9.8c4.6-5.3,7.4-12.5,7.4-21.4C341,102.5,333.8,92.4,321.8,89z M302.6,49.2
			c1.4-0.5,3.5-0.8,6.3-0.8c12.6,0,17.1,7.7,17.1,17.6c0,11.4-8.3,19-18,19h-5.4V49.2z M308.6,138c-2.6,0-4.6-0.3-6-0.6V94.5h5.2
			c11.1,0.2,20.9,7.2,20.9,22.1C328.7,130.5,320.8,138,308.6,138z"/>
		<path d="M372.1,86.8c-9.8-7.4-15.2-11.5-15.2-22.3c0-7.4,4.8-15.4,15-15.4c5.4,0,9.7,1.8,12.3,3.7l2.8-10.6c-2.5-1.9-8-4-14.4-4
			c-16.4,0-27.3,12-27.3,28.3c0,13.9,11.2,24,19.5,29.9c8.1,6.4,13.7,12.5,13.7,22.4c0,10.9-6.5,18.2-17.4,18.2
			c-5.1,0-11.4-1.9-14.7-4.3l-2.6,10.6c2.9,2.2,10.3,4.6,17.4,4.6c16.6,0,29.1-11.7,29.1-30.2C390.1,105.8,384.5,95.9,372.1,86.8z"
			/>
	</g>
	<g>
		<path class="st0" d="M185.1,41.1l-5.4-3.2c-0.9-0.6-1.9-0.1-2.1,0.9c0,0-21.5,103-23.1,110.2c-1.6,7.2-8.8,8.6-8.8,8.6
			c-1.1,0.2-2.8,0.4-3.8,0.4c0,0-19.8,0-40.4,0c-20.7,0-40.5,0-40.5,0c-1.1,0-2.8-0.2-3.9-0.4c0,0-7.2-1.4-8.8-8.6
			c-1.6-7.2-23.1-110.2-23.1-110.2c-0.2-1.1-1.2-1.5-2.1-0.9l-5.3,3.2c-0.9,0.6-1.5,1.9-1.3,3L44,176.2c0.2,1.1,1.3,2,2.4,2h55.1
			h55.1c1.1,0,2.1-0.9,2.4-2l27.5-132.2C186.6,43,186,41.6,185.1,41.1z"/>
		<path class="st1" d="M57.4,145.9c0.2,1.1,1.3,1.9,2.3,1.9h41.7h41.7c1.1,0,2.1-0.9,2.4-1.9L166.8,44c0.2-1.1-0.3-2.4-1.3-3
			l-5.3-3.2c-0.9-0.6-1.9-0.1-2.1,0.9l-17.3,81.9c0,0-1.4,7-10.4,7c-4.3,0-16.5,0-29,0c-12.5,0-24.7,0-29,0c-8.9,0-10.4-7-10.4-7
			L44.8,38.8c-0.2-1.1-1.2-1.5-2.1-0.9L37.4,41c-0.9,0.6-1.5,1.9-1.3,3L57.4,145.9z"/>
		<path class="st2" d="M70.6,115.6c0.2,1.1,1.3,2,2.3,2h28.5H130c1.1,0,2.1-0.9,2.3-2l14.8-71.4c0.2-1.1-0.4-2.4-1.3-3l-5.4-3.2
			c-0.9-0.5-1.9-0.1-2.1,1l-10.9,51.3c0,0-1.5,7-10.3,7c-4.1,0-9.9,0-15.8,0c-6,0-11.7,0-15.8,0c-8.9,0-10.3-7-10.3-7L64.4,39
			c-0.2-1.1-1.2-1.5-2.1-1L57,41.3c-0.9,0.6-1.5,1.9-1.3,3L70.6,115.6z"/>
	</g>
	<g>
		<path d="M213.7,169.1c-0.2-3.2-0.3-6.7-0.2-9.4h-0.1c-0.5,2.7-1.1,5.5-1.9,8.4l-2.9,11.3h-1.7l-2.7-10.8c-0.8-3.1-1.4-6-1.9-8.8
			h-0.1c0,2.8-0.1,6.2-0.3,9.6l-0.4,10.2H199l1.4-24.1h2.9l2.7,11c0.8,3.2,1.4,5.5,1.9,8.3h0.1c0.5-2.8,1-5,1.7-8.3l2.6-11h3
			l1.3,24.1h-2.5L213.7,169.1z"/>
		<path d="M230.4,170.8c0,6.7-3,8.9-5.6,8.9c-3,0-5.4-2.8-5.4-8.9c0-6.3,2.7-9,5.6-9C227.9,161.9,230.4,164.8,230.4,170.8z
			 M222,170.8c0,2.9,0.5,6.7,2.9,6.7c2.3,0,2.7-4.1,2.7-6.7c0-2.6-0.5-6.7-2.8-6.7C222.5,164.1,222,168.2,222,170.8z"/>
		<path d="M232.9,176.6c0.6,0.4,1.6,0.9,2.7,0.9c1.5,0,2.5-1,2.5-2.5c0-1.3-0.5-2.2-2.2-3.4c-2.2-1.5-3.4-2.9-3.4-4.9
			c0-2.8,2-4.8,4.6-4.8c1.3,0,2.3,0.5,3,0.9l-0.7,2.1c-0.6-0.4-1.4-0.7-2.2-0.7c-1.5,0-2.2,1.1-2.2,2.2c0,1.2,0.4,1.8,2.1,3
			c1.9,1.3,3.5,2.9,3.5,5.2c0,3.5-2.3,5.1-5,5.1c-1.2,0-2.6-0.4-3.3-1L232.9,176.6z"/>
		<path d="M251.5,179c-0.6,0.4-1.6,0.6-2.8,0.6c-3.7,0-6.1-3-6.1-8.7c0-5,2.4-9,6.6-9c0.9,0,1.9,0.3,2.4,0.5l-0.5,2.3
			c-0.3-0.2-1-0.5-1.9-0.5c-2.7,0-3.9,3.3-3.9,6.7c0,4,1.5,6.5,3.9,6.5c0.7,0,1.3-0.2,2-0.5L251.5,179z"/>
		<path d="M263.9,170.8c0,6.7-3,8.9-5.6,8.9c-3,0-5.4-2.8-5.4-8.9c0-6.3,2.7-9,5.6-9C261.5,161.9,263.9,164.8,263.9,170.8z
			 M255.5,170.8c0,2.9,0.5,6.7,2.9,6.7c2.3,0,2.7-4.1,2.7-6.7c0-2.6-0.5-6.7-2.8-6.7C256,164.1,255.5,168.2,255.5,170.8z"/>
		<path d="M268,162.2l1.6,8.5c0.3,1.9,0.7,3.7,0.9,5.5h0.1c0.2-1.8,0.7-3.8,1-5.4l1.9-8.5h2l1.8,8.3c0.4,1.9,0.8,3.7,1.1,5.7h0.1
			c0.2-1.8,0.5-3.6,0.9-5.6l1.6-8.4h2.7l-4.2,17.3h-2.2l-1.9-8.4c-0.4-1.7-0.7-3.2-0.9-5.2h-0.1c-0.3,2-0.6,3.6-1,5.3l-2,8.3h-2.2
			l-4.1-17.3H268z"/>
		<path d="M291.9,155.7c1.1-0.3,2.4-0.5,3.9-0.5c2.1,0,3.9,0.5,5.2,1.7c1,1,1.5,2.4,1.5,4.1c0,2.5-1.3,4.4-3.6,5.4v0.1
			c2.7,0.7,4.3,3,4.3,6.1c0,2-0.6,3.6-1.7,4.8c-1.3,1.5-3.5,2.2-6.2,2.2c-1.7,0-2.8-0.1-3.5-0.3V155.7z M294.6,165.6h1.2
			c2.2,0,4.1-1.7,4.1-4.3c0-2.2-1-3.9-3.8-3.9c-0.6,0-1.1,0.1-1.4,0.2V165.6z M294.6,177.3c0.3,0.1,0.8,0.1,1.3,0.1
			c2.8,0,4.6-1.7,4.6-4.8c0-3.3-2.2-4.9-4.7-4.9h-1.2V177.3z"/>
		<path d="M312.9,179.5l-0.2-1.8h-0.1c-0.7,1.3-1.9,2.1-3.3,2.1c-2.2,0-4-2-4-4.9c0-4.3,3.4-6.3,7.1-6.3V168c0-2.3-0.6-3.9-2.7-3.9
			c-1,0-2,0.4-2.8,0.9l-0.6-1.9c0.7-0.5,2.3-1.1,3.9-1.1c3.4,0,4.8,2.3,4.8,6.2v7.5c0,1.3,0,2.8,0.2,3.9H312.9z M312.5,170.5
			c-1.4,0-4.6,0.3-4.6,4c0,2.3,1.1,3.1,2,3.1c1.2,0,2.2-0.9,2.5-2.6c0.1-0.3,0.1-0.7,0.1-1V170.5z"/>
		<path d="M318.9,166.6c0-1.5-0.1-3.2-0.2-4.5h2.4l0.1,2.7h0.1c0.6-1.6,2-3,3.5-3c0.2,0,0.4,0,0.6,0v2.8c-0.2,0-0.3,0-0.6,0
			c-1.7,0-2.9,1.6-3.2,3.6c-0.1,0.5-0.1,1-0.1,1.6v9.6h-2.7V166.6z"/>
		<path d="M332.6,176.3c0.8,0.5,2.2,1,3.4,1c2.4,0,3.9-1.6,3.9-4.1c0-2.2-1.3-3.6-3.1-5c-1.8-1.3-4.4-3.6-4.4-6.7
			c0-3.6,2.5-6.3,6.2-6.3c1.5,0,2.7,0.5,3.3,0.9l-0.7,2.4c-0.6-0.4-1.6-0.8-2.8-0.8c-2.3,0-3.4,1.8-3.4,3.4c0,2.4,1.2,3.3,3.4,5
			c2.8,2,4.1,4.3,4.1,6.9c0,4.1-2.9,6.7-6.6,6.7c-1.6,0-3.3-0.5-3.9-1L332.6,176.3z"/>
		<path d="M345.4,154.7h2.7v9.3h0.1c0.3-0.6,0.9-1.1,1.4-1.5c0.6-0.4,1.3-0.6,2.2-0.6c2.1,0,3.9,1.8,3.9,6.1v11.5h-2.7v-11.1
			c0-2.1-0.5-4.1-2.3-4.1c-1.2,0-2.2,0.9-2.6,2.8c-0.1,0.4-0.1,0.9-0.1,1.3v11.2h-2.7V154.7z"/>
		<path d="M369.7,170.8c0,6.7-3,8.9-5.6,8.9c-3,0-5.4-2.8-5.4-8.9c0-6.3,2.7-9,5.6-9C367.3,161.9,369.7,164.8,369.7,170.8z
			 M361.4,170.8c0,2.9,0.5,6.7,2.9,6.7c2.3,0,2.7-4.1,2.7-6.7c0-2.6-0.4-6.7-2.8-6.7C361.9,164.1,361.4,168.2,361.4,170.8z"/>
		<path d="M373.8,162.2l1.6,8.5c0.3,1.9,0.7,3.7,0.9,5.5h0.1c0.2-1.8,0.7-3.8,1-5.4l1.9-8.5h2l1.8,8.3c0.4,1.9,0.8,3.7,1.1,5.7h0.1
			c0.2-1.8,0.5-3.6,0.9-5.6l1.6-8.4h2.7l-4.2,17.3h-2.2l-1.9-8.4c-0.4-1.7-0.7-3.2-0.9-5.2h-0.1c-0.3,2-0.6,3.6-1,5.3l-2,8.3h-2.3
			l-4.1-17.3H373.8z"/>
	</g>
</g>
<g id="Layer_5">
</g>
</svg>
